<svg width="134" height="47" viewBox="0 0 134 47" fill="none" xmlns="http://www.w3.org/2000/svg">
<path d="M8.0625 37L0.9375 10.8182H8.28409L12.3409 28.4091H12.5795L16.8068 10.8182H24.017L28.3125 28.3068H28.5341L32.5227 10.8182H39.8523L32.7443 37H25.0568L20.5568 20.5341H20.233L15.733 37H8.0625Z" fill="#535353"/>
<path d="M47.1472 21.8636V37H39.8859V10.8182H46.8063V15.4375H47.1131C47.6927 13.9148 48.6643 12.7102 50.0279 11.8239C51.3915 10.9261 53.0449 10.4773 54.9881 10.4773C56.8063 10.4773 58.3915 10.875 59.7438 11.6705C61.0961 12.4659 62.1472 13.6023 62.8972 15.0795C63.6472 16.5455 64.0222 18.2955 64.0222 20.3295V37H56.7609V21.625C56.7722 20.0227 56.3631 18.7727 55.5336 17.875C54.704 16.9659 53.562 16.5114 52.1074 16.5114C51.1302 16.5114 50.2665 16.7216 49.5165 17.142C48.7779 17.5625 48.1984 18.1761 47.7779 18.983C47.3688 19.7784 47.1586 20.7386 47.1472 21.8636Z" fill="#535353"/>
<path d="M75.553 37.4261C73.5643 37.4261 71.7632 36.9148 70.1495 35.892C68.5473 34.858 67.2745 33.3409 66.3314 31.3409C65.3995 29.3295 64.9336 26.8636 64.9336 23.9432C64.9336 20.9432 65.4166 18.4489 66.3825 16.4602C67.3484 14.4602 68.6325 12.9659 70.2348 11.9773C71.8484 10.9773 73.6155 10.4773 75.5359 10.4773C77.0018 10.4773 78.2234 10.7273 79.2007 11.2273C80.1893 11.7159 80.9848 12.3295 81.587 13.0682C82.2007 13.7955 82.6666 14.5114 82.9848 15.2159H83.2064V2.09091H90.4507V37H83.2916V32.8068H82.9848C82.6439 33.5341 82.1609 34.2557 81.5359 34.9716C80.9223 35.6761 80.1211 36.2614 79.1325 36.7273C78.1552 37.1932 76.962 37.4261 75.553 37.4261ZM77.8541 31.6477C79.0245 31.6477 80.0132 31.3295 80.82 30.6932C81.6382 30.0455 82.2632 29.142 82.695 27.983C83.1382 26.8239 83.3598 25.4659 83.3598 23.9091C83.3598 22.3523 83.1439 21 82.712 19.8523C82.2802 18.7045 81.6552 17.8182 80.837 17.1932C80.0189 16.5682 79.0245 16.2557 77.8541 16.2557C76.6609 16.2557 75.6552 16.5795 74.837 17.2273C74.0189 17.875 73.3995 18.7727 72.9791 19.9205C72.5586 21.0682 72.3484 22.3977 72.3484 23.9091C72.3484 25.4318 72.5586 26.7784 72.9791 27.9489C73.4109 29.108 74.0302 30.017 74.837 30.6761C75.6552 31.3239 76.6609 31.6477 77.8541 31.6477Z" fill="#535353"/>
<path d="M92.5809 10.8182H99.8422V38.2955C99.8422 40.3182 99.4445 41.9545 98.649 43.2045C97.8536 44.4545 96.7115 45.3693 95.2229 45.9489C93.7456 46.5284 91.9786 46.8182 89.9218 46.8182C89.6718 46.8182 89.4331 46.8125 89.2059 46.8011C88.9672 46.8011 88.7172 46.7955 88.4559 46.7841V41.108C88.649 41.1193 88.8195 41.125 88.9672 41.125C89.1036 41.1364 89.2513 41.142 89.4104 41.142C90.5809 41.142 91.399 40.892 91.8649 40.392C92.3422 39.9034 92.5809 39.1648 92.5809 38.1761V10.8182ZM96.1945 7.44318C95.1263 7.44318 94.2059 7.08523 93.4331 6.36932C92.6604 5.64204 92.274 4.77273 92.274 3.76136C92.274 2.76136 92.6604 1.90341 93.4331 1.1875C94.2059 0.460225 95.1263 0.0965881 96.1945 0.0965881C97.2854 0.0965881 98.2115 0.460225 98.9729 1.1875C99.7456 1.90341 100.132 2.76136 100.132 3.76136C100.132 4.77273 99.7456 5.64204 98.9729 6.36932C98.2115 7.08523 97.2854 7.44318 96.1945 7.44318Z" fill="#535353"/>
<path d="M122.132 35.4574C121.208 35.4574 120.503 35.17 120.016 34.5951C119.53 34.0203 119.287 33.3735 119.287 32.655C119.287 31.8885 119.433 31.1939 119.725 30.5712C120.065 29.9005 120.405 29.158 120.746 28.3436C121.135 27.4813 121.402 26.4514 121.548 25.2538C121.597 24.9664 121.524 24.7987 121.33 24.7508C121.184 24.655 120.989 24.7029 120.746 24.8945C119.287 26.0921 118.266 27.1939 117.682 28.1999C117.147 29.2059 116.393 29.9724 115.42 30.4993C114.788 30.8346 114.107 30.9544 113.378 30.8586C112.648 30.7149 112.04 30.2598 111.554 29.4933C111.116 28.6789 111.019 27.9125 111.262 27.1939C111.505 26.4753 111.943 25.9484 112.575 25.6131C113.256 25.2298 113.961 25.0143 114.691 24.9664C115.469 24.9185 116.296 24.8466 117.171 24.7508C118.095 24.655 119.117 24.3676 120.235 23.8885C120.527 23.7927 120.673 23.649 120.673 23.4574C120.673 23.2658 120.527 23.1221 120.235 23.0262C119.117 22.4993 118.095 22.2119 117.171 22.164C116.296 22.0682 115.469 21.9963 114.691 21.9484C113.961 21.9005 113.256 21.6849 112.575 21.3017C111.943 20.9185 111.505 20.3676 111.262 19.649C111.019 18.9304 111.116 18.1879 111.554 17.4215C112.04 16.655 112.648 16.1999 113.378 16.0562C114.107 15.9125 114.788 16.0322 115.42 16.4155C116.101 16.7987 116.661 17.3017 117.098 17.9244C117.536 18.4993 118.022 19.146 118.557 19.8646C119.092 20.5831 119.846 21.3256 120.819 22.0921C121.062 22.2837 121.257 22.3316 121.402 22.2358C121.548 22.14 121.597 21.9484 121.548 21.661C121.402 20.4155 121.135 19.3855 120.746 18.5712C120.405 17.7568 120.065 17.0143 119.725 16.3436C119.433 15.673 119.287 14.9783 119.287 14.2598C119.287 13.5412 119.53 12.8945 120.016 12.3197C120.503 11.7448 121.208 11.4574 122.132 11.4574C123.056 11.4574 123.761 11.7448 124.248 12.3197C124.734 12.8945 124.977 13.5412 124.977 14.2598C124.977 14.9783 124.807 15.673 124.466 16.3436C124.175 17.0143 123.834 17.7568 123.445 18.5712C123.105 19.3855 122.862 20.4155 122.716 21.661C122.667 21.9484 122.716 22.14 122.862 22.2358C123.056 22.3316 123.251 22.2837 123.445 22.0921C124.466 21.3256 125.22 20.5831 125.707 19.8646C126.242 19.146 126.728 18.4993 127.166 17.9244C127.603 17.3017 128.163 16.7987 128.844 16.4155C129.476 16.0322 130.157 15.9125 130.886 16.0562C131.616 16.1999 132.224 16.655 132.71 17.4215C133.148 18.1879 133.245 18.9304 133.002 19.649C132.759 20.3676 132.321 20.9185 131.689 21.3017C131.008 21.6849 130.278 21.9005 129.5 21.9484C128.771 21.9963 127.944 22.0682 127.02 22.164C126.144 22.2119 125.147 22.4993 124.029 23.0262C123.737 23.1221 123.591 23.2658 123.591 23.4574C123.591 23.649 123.737 23.7927 124.029 23.8885C125.147 24.3676 126.144 24.655 127.02 24.7508C127.944 24.8466 128.771 24.9185 129.5 24.9664C130.278 25.0143 131.008 25.2298 131.689 25.6131C132.321 25.9484 132.759 26.4753 133.002 27.1939C133.245 27.9125 133.148 28.6789 132.71 29.4933C132.224 30.2598 131.616 30.7149 130.886 30.8586C130.157 30.9544 129.476 30.8346 128.844 30.4993C127.919 29.9724 127.166 29.2059 126.582 28.1999C125.998 27.1939 124.977 26.0921 123.518 24.8945C123.324 24.7029 123.129 24.655 122.934 24.7508C122.74 24.7987 122.667 24.9664 122.716 25.2538C122.862 26.4514 123.105 27.4813 123.445 28.3436C123.834 29.158 124.175 29.9005 124.466 30.5712C124.807 31.1939 124.977 31.8885 124.977 32.655C124.977 33.3735 124.734 34.0203 124.248 34.5951C123.761 35.17 123.056 35.4574 122.132 35.4574Z" fill="#FF4C00"/>
</svg>
